# xmcd
#
# Track frame offsets:
#	150
#	13351
#	34403
#	56299
#	90031
#	107739
#	118154
#	130125
#	140852
#	150754
#	163691
#	177374
#
# Disc length: 2539 seconds
#
# Revision: 0
# Processed by: cddbd v1.5.2PL0 Copyright (c) Steve Scherf et al.
# Submitted via: audiograbber 1.83.01
#
DISCID=9909e90c
DTITLE=Various Artist - Classic Soul Hits
DYEAR=1900
DGENRE=Soul
TTITLE0=Percy Sledge - When A Man Loves A Woman
TTITLE1=Teddy Pendergrass - Close The Door
TTITLE2=Dionne Warwick (With David Elliot) - That's What Friends Are For (Live)
TTITLE3=Ray Charles - Georgia On My Mind (Live)
TTITLE4=Marvin Gaye - I Heard It Through The Grapevine (Live)
TTITLE5=James Brown - Papa's Got A Brand New Rag (Live)
TTITLE6=Martha Reeves - Dancing In The Street
TTITLE7=Gene Chandler - Duke Of Earl
TTITLE8=The Drifters - There Goes My Baby
TTITLE9=The Miracles - Shop Around
TTITLE10=Ben E. King - Spanish Harlem
TTITLE11=Etta James - At Last
EXTD=
EXTT0=
EXTT1=
EXTT2=
EXTT3=
EXTT4=
EXTT5=
EXTT6=
EXTT7=
EXTT8=
EXTT9=
EXTT10=
EXTT11=
PLAYORDER=
